<svg width="50" height="51" viewBox="0 0 50 51" fill="none" xmlns="http://www.w3.org/2000/svg">
<circle cx="25.0039" cy="25.7861" r="25" fill="#0F131B"/>
<g clip-path="url(#clip0_1_53471)">
<path d="M35.8919 35.3334H14.1141C13.7016 35.3334 13.3059 35.1695 13.0142 34.8778C12.7225 34.5861 12.5586 34.1904 12.5586 33.7779V18.2223C12.5586 17.8097 12.7225 17.4141 13.0142 17.1224C13.3059 16.8306 13.7016 16.6667 14.1141 16.6667H35.8919C36.3045 16.6667 36.7001 16.8306 36.9919 17.1224C37.2836 17.4141 37.4475 17.8097 37.4475 18.2223V33.7779C37.4475 34.1904 37.2836 34.5861 36.9919 34.8778C36.7001 35.1695 36.3045 35.3334 35.8919 35.3334ZM14.1141 18.2223V33.7779H35.8919V18.2223H14.1141Z" fill="white"/>
<path d="M18.0031 31.6776C17.8381 31.6776 17.6798 31.612 17.5631 31.4953C17.4464 31.3786 17.3809 31.2204 17.3809 31.0554V20.9442C17.3809 20.7792 17.4464 20.621 17.5631 20.5043C17.6798 20.3876 17.8381 20.322 18.0031 20.322C18.1681 20.322 18.3264 20.3876 18.4431 20.5043C18.5597 20.621 18.6253 20.7792 18.6253 20.9442V31.0554C18.6253 31.2204 18.5597 31.3786 18.4431 31.4953C18.3264 31.612 18.1681 31.6776 18.0031 31.6776Z" fill="white"/>
<path d="M22.6083 31.6776C22.4433 31.6776 22.285 31.612 22.1683 31.4953C22.0516 31.3786 21.9861 31.2204 21.9861 31.0554V20.9442C21.9861 20.7792 22.0516 20.621 22.1683 20.5043C22.285 20.3876 22.4433 20.322 22.6083 20.322C22.7733 20.322 22.9316 20.3876 23.0483 20.5043C23.165 20.621 23.2305 20.7792 23.2305 20.9442V31.0554C23.2305 31.2204 23.165 31.3786 23.0483 31.4953C22.9316 31.612 22.7733 31.6776 22.6083 31.6776Z" fill="white"/>
<path d="M27.3373 31.6776C27.1723 31.6776 27.014 31.612 26.8973 31.4953C26.7806 31.3786 26.7151 31.2204 26.7151 31.0554V20.9442C26.7151 20.7792 26.7806 20.621 26.8973 20.5043C27.014 20.3876 27.1723 20.322 27.3373 20.322C27.5023 20.322 27.6606 20.3876 27.7773 20.5043C27.894 20.621 27.9595 20.7792 27.9595 20.9442V31.0554C27.9595 31.2204 27.894 31.3786 27.7773 31.4953C27.6606 31.612 27.5023 31.6776 27.3373 31.6776Z" fill="white"/>
<path d="M32.0031 31.6776C31.8381 31.6776 31.6798 31.612 31.5631 31.4953C31.4464 31.3786 31.3809 31.2204 31.3809 31.0554V20.9442C31.3809 20.7792 31.4464 20.621 31.5631 20.5043C31.6798 20.3876 31.8381 20.322 32.0031 20.322C32.1681 20.322 32.3264 20.3876 32.4431 20.5043C32.5597 20.621 32.6253 20.7792 32.6253 20.9442V31.0554C32.6253 31.2204 32.5597 31.3786 32.4431 31.4953C32.3264 31.612 32.1681 31.6776 32.0031 31.6776Z" fill="white"/>
</g>
<defs>
<clipPath id="clip0_1_53471">
<rect width="28" height="28" fill="white" transform="translate(11.0039 11.9998)"/>
</clipPath>
</defs>
</svg>
